REM DIRINDEX 1\2,1\3,1\4
REM DIRNAME folder01,folder02,folder03,folder04
TITLE ""
FILE "135 135_TOEFL_3900.mp3" MP3
  TRACK 01 AUDIO
    TITLE "2:cjc151_5867"
    INDEX 01 00:00:00
  TRACK 02 AUDIO
    TITLE "0:"
    INDEX 01 00:01:24
  TRACK 03 AUDIO
    TITLE "3:cjc151_5868"
    INDEX 01 00:03:04
  TRACK 04 AUDIO
    TITLE "0:"
    INDEX 01 00:07:03
  TRACK 05 AUDIO
    TITLE "2:cjc151_5869"
    INDEX 01 00:08:58
  TRACK 06 AUDIO
    TITLE "0:"
    INDEX 01 00:10:00
  TRACK 07 AUDIO
    TITLE "3:cjc151_5870"
    INDEX 01 00:11:54
  TRACK 08 AUDIO
    TITLE "0:"
    INDEX 01 00:15:62
  TRACK 09 AUDIO
    TITLE "2:cjc151_5871"
    INDEX 01 00:17:41
  TRACK 10 AUDIO
    TITLE "0:"
    INDEX 01 00:18:48
  TRACK 11 AUDIO
    TITLE "3:cjc151_5872"
    INDEX 01 00:20:26
  TRACK 12 AUDIO
    TITLE "0:"
    INDEX 01 00:24:65
  TRACK 13 AUDIO
    TITLE "2:cjc151_5873"
    INDEX 01 00:26:44
  TRACK 14 AUDIO
    TITLE "0:"
    INDEX 01 00:27:45
  TRACK 15 AUDIO
    TITLE "3:cjc151_5874"
    INDEX 01 00:29:23
  TRACK 16 AUDIO
    TITLE "0:"
    INDEX 01 00:34:02
  TRACK 17 AUDIO
    TITLE "2:cjc151_5875"
    INDEX 01 00:35:55
  TRACK 18 AUDIO
    TITLE "0:"
    INDEX 01 00:36:58
  TRACK 19 AUDIO
    TITLE "3:cjc151_5876"
    INDEX 01 00:38:39
  TRACK 20 AUDIO
    TITLE "0:"
    INDEX 01 00:42:33
  TRACK 21 AUDIO
    TITLE "2:cjc151_5877"
    INDEX 01 00:44:14
  TRACK 22 AUDIO
    TITLE "0:"
    INDEX 01 00:45:37
  TRACK 23 AUDIO
    TITLE "3:cjc151_5878"
    INDEX 01 00:47:17
  TRACK 24 AUDIO
    TITLE "0:"
    INDEX 01 00:50:74
  TRACK 25 AUDIO
    TITLE "2:cjc151_5879"
    INDEX 01 00:52:53
  TRACK 26 AUDIO
    TITLE "0:"
    INDEX 01 00:53:58
  TRACK 27 AUDIO
    TITLE "3:cjc151_5880"
    INDEX 01 00:55:36
  TRACK 28 AUDIO
    TITLE "0:"
    INDEX 01 00:59:53
  TRACK 29 AUDIO
    TITLE "2:cjc151_5881"
    INDEX 01 01:01:33
  TRACK 30 AUDIO
    TITLE "0:"
    INDEX 01 01:03:02
  TRACK 31 AUDIO
    TITLE "3:cjc151_5882"
    INDEX 01 01:04:56
  TRACK 32 AUDIO
    TITLE "0:"
    INDEX 01 01:10:24
  TRACK 33 AUDIO
    TITLE "2:cjc151_5883"
    INDEX 01 01:12:03
  TRACK 34 AUDIO
    TITLE "0:"
    INDEX 01 01:13:14
  TRACK 35 AUDIO
    TITLE "3:cjc151_5884"
    INDEX 01 01:14:68
  TRACK 36 AUDIO
    TITLE "0:"
    INDEX 01 01:18:72
  TRACK 37 AUDIO
    TITLE "2:cjc151_5885"
    INDEX 01 01:20:49
  TRACK 38 AUDIO
    TITLE "0:"
    INDEX 01 01:23:42
  TRACK 39 AUDIO
    TITLE "3:cjc151_5886"
    INDEX 01 01:25:19
  TRACK 40 AUDIO
    TITLE "0:"
    INDEX 01 01:29:72
  TRACK 41 AUDIO
    TITLE "2:cjc151_5887"
    INDEX 01 01:31:51
  TRACK 42 AUDIO
    TITLE "0:"
    INDEX 01 01:32:59
  TRACK 43 AUDIO
    TITLE "3:cjc151_5888"
    INDEX 01 01:34:38
  TRACK 44 AUDIO
    TITLE "0:"
    INDEX 01 01:38:34
  TRACK 45 AUDIO
    TITLE "2:cjc151_5889"
    INDEX 01 01:40:13
  TRACK 46 AUDIO
    TITLE "0:"
    INDEX 01 01:41:48
  TRACK 47 AUDIO
    TITLE "3:cjc151_5890"
    INDEX 01 01:43:25
  TRACK 48 AUDIO
    TITLE "0:"
    INDEX 01 01:47:07
  TRACK 49 AUDIO
    TITLE "2:cjc151_5891"
    INDEX 01 01:48:61
  TRACK 50 AUDIO
    TITLE "0:"
    INDEX 01 01:50:07
  TRACK 51 AUDIO
    TITLE "3:cjc151_5892"
    INDEX 01 01:51:62
  TRACK 52 AUDIO
    TITLE "0:"
    INDEX 01 01:58:38
  TRACK 53 AUDIO
    TITLE "2:cjc151_5893"
    INDEX 01 02:00:18
  TRACK 54 AUDIO
    TITLE "0:"
    INDEX 01 02:01:52
  TRACK 55 AUDIO
    TITLE "3:cjc151_5894"
    INDEX 01 02:03:32
  TRACK 56 AUDIO
    TITLE "0:"
    INDEX 01 02:08:19
  TRACK 57 AUDIO
    TITLE "2:cjc151_5895"
    INDEX 01 02:09:71
  TRACK 58 AUDIO
    TITLE "0:"
    INDEX 01 02:11:12
  TRACK 59 AUDIO
    TITLE "3:cjc151_5896"
    INDEX 01 02:12:64
  TRACK 60 AUDIO
    TITLE "0:"
    INDEX 01 02:16:23
  TRACK 61 AUDIO
    TITLE "2:cjc151_5897"
    INDEX 01 02:17:73
  TRACK 62 AUDIO
    TITLE "0:"
    INDEX 01 02:18:65
  TRACK 63 AUDIO
    TITLE "3:cjc151_5898"
    INDEX 01 02:20:44
  TRACK 64 AUDIO
    TITLE "0:"
    INDEX 01 02:24:40
  TRACK 65 AUDIO
    TITLE "2:cjc151_5899"
    INDEX 01 02:26:19
  TRACK 66 AUDIO
    TITLE "0:"
    INDEX 01 02:27:36
  TRACK 67 AUDIO
    TITLE "3:cjc151_5900"
    INDEX 01 02:29:13
  TRACK 68 AUDIO
    TITLE "0:"
    INDEX 01 02:33:45
  TRACK 69 AUDIO
    TITLE "2:cjc151_5901"
    INDEX 01 02:35:24
  TRACK 70 AUDIO
    TITLE "0:"
    INDEX 01 02:36:37
  TRACK 71 AUDIO
    TITLE "3:cjc151_5902"
    INDEX 01 02:38:18
  TRACK 72 AUDIO
    TITLE "0:"
    INDEX 01 02:42:06
  TRACK 73 AUDIO
    TITLE "2:cjc151_5903"
    INDEX 01 02:43:63
  TRACK 74 AUDIO
    TITLE "0:"
    INDEX 01 02:45:09
  TRACK 75 AUDIO
    TITLE "3:cjc151_5904"
    INDEX 01 02:46:63
  TRACK 76 AUDIO
    TITLE "0:"
    INDEX 01 02:50:41
  TRACK 77 AUDIO
    TITLE "2:cjc151_5905"
    INDEX 01 02:52:16
  TRACK 78 AUDIO
    TITLE "0:"
    INDEX 01 02:53:16
  TRACK 79 AUDIO
    TITLE "3:cjc151_5906"
    INDEX 01 02:54:72
  TRACK 80 AUDIO
    TITLE "0:"
    INDEX 01 02:59:15
  TRACK 81 AUDIO
    TITLE "2:cjc151_5907"
    INDEX 01 03:00:69
  TRACK 82 AUDIO
    TITLE "0:"
    INDEX 01 03:02:01
  TRACK 83 AUDIO
    TITLE "3:cjc151_5908"
    INDEX 01 03:03:55
  TRACK 84 AUDIO
    TITLE "0:"
    INDEX 01 03:09:19
  TRACK 85 AUDIO
    TITLE "2:cjc151_5909"
    INDEX 01 03:10:73
  TRACK 86 AUDIO
    TITLE "0:"
    INDEX 01 03:12:25
  TRACK 87 AUDIO
    TITLE "3:cjc151_5910"
    INDEX 01 03:14:02
  TRACK 88 AUDIO
    TITLE "0:"
    INDEX 01 03:18:65
